<svg width="24" height="24" viewBox="0 0 24 24" fill="none" xmlns="http://www.w3.org/2000/svg">
<path opacity="0.4" d="M16.19 2H7.81C4.17 2 2 4.17 2 7.81V16.18C2 19.83 4.17 22 7.81 22H16.18C19.82 22 21.99 19.83 21.99 16.19V7.81C22 4.17 19.83 2 16.19 2Z" fill="#161616"/>
<path d="M15.8902 8.11C14.4102 6.64 12.0102 6.64 10.5402 8.11C9.51019 9.13 9.20019 10.61 9.60019 11.91L7.25019 14.26C7.09019 14.43 6.97019 14.76 7.01019 15L7.16019 16.09C7.21019 16.45 7.55019 16.79 7.91019 16.84L9.00019 17C9.24019 17.03 9.57019 16.93 9.74019 16.75L10.1502 16.34C10.2502 16.25 10.2502 16.09 10.1502 15.99L9.18019 15.02C9.04019 14.88 9.04019 14.64 9.18019 14.49C9.32019 14.35 9.56019 14.35 9.71019 14.49L10.6802 15.46C10.7702 15.55 10.9302 15.55 11.0302 15.46L12.0902 14.41C13.3802 14.81 14.8602 14.5 15.8902 13.48C17.3702 11.99 17.3702 9.59 15.8902 8.11ZM13.2502 12C12.5602 12 12.0002 11.44 12.0002 10.75C12.0002 10.06 12.5602 9.5 13.2502 9.5C13.9402 9.5 14.5002 10.06 14.5002 10.75C14.5002 11.44 13.9402 12 13.2502 12Z" fill="#161616"/>
</svg>
