<svg width="16" height="16" viewBox="0 0 16 16" fill="none" xmlns="http://www.w3.org/2000/svg">
<path opacity="0.4" d="M7.99967 14.6666C11.6816 14.6666 14.6663 11.6818 14.6663 7.99992C14.6663 4.31802 11.6816 1.33325 7.99967 1.33325C4.31778 1.33325 1.33301 4.31802 1.33301 7.99992C1.33301 11.6818 4.31778 14.6666 7.99967 14.6666Z" fill="#161616"/>
<path d="M10.4731 10.6199C10.3864 10.6199 10.2998 10.5999 10.2198 10.5466L8.1531 9.31326C7.63977 9.00659 7.25977 8.33326 7.25977 7.73992V5.00659C7.25977 4.73326 7.48643 4.50659 7.75977 4.50659C8.0331 4.50659 8.25977 4.73326 8.25977 5.00659V7.73992C8.25977 7.97992 8.45977 8.33326 8.66643 8.45326L10.7331 9.68659C10.9731 9.82659 11.0464 10.1333 10.9064 10.3733C10.8064 10.5333 10.6398 10.6199 10.4731 10.6199Z" fill="#161616"/>
</svg>
