<svg width="16" height="16" viewBox="0 0 16 16" fill="none" xmlns="http://www.w3.org/2000/svg">
<path opacity="0.4" d="M3.8269 10.6666C3.90023 10.3399 3.7669 9.87325 3.53357 9.63992L1.91356 8.01992C1.4069 7.51325 1.2069 6.97325 1.35356 6.50659C1.5069 6.03992 1.98023 5.71992 2.6869 5.59992L4.7669 5.25325C5.0669 5.19992 5.43356 4.93325 5.57356 4.65992L6.72023 2.35992C7.05356 1.69992 7.5069 1.33325 8.00023 1.33325C8.49356 1.33325 8.9469 1.69992 9.28023 2.35992L10.4269 4.65992C10.5136 4.83325 10.6936 4.99992 10.8869 5.11325L3.7069 12.2933C3.61356 12.3866 3.45356 12.2999 3.48023 12.1666L3.8269 10.6666Z" fill="#F3AB1F"/>
<path d="M12.4662 9.64001C12.2262 9.88001 12.0929 10.34 12.1729 10.6667L12.6329 12.6733C12.8262 13.5067 12.7062 14.1333 12.2929 14.4333C12.1262 14.5533 11.9262 14.6133 11.6929 14.6133C11.3529 14.6133 10.9529 14.4867 10.5129 14.2267L8.55954 13.0667C8.25288 12.8867 7.74621 12.8867 7.43954 13.0667L5.48621 14.2267C4.74621 14.66 4.11288 14.7333 3.70621 14.4333C3.55288 14.32 3.43954 14.1667 3.36621 13.9667L11.4729 5.86001C11.7795 5.55335 12.2129 5.41335 12.6329 5.48668L13.3062 5.60001C14.0129 5.72001 14.4862 6.04001 14.6395 6.50668C14.7862 6.97335 14.5862 7.51335 14.0795 8.02001L12.4662 9.64001Z" fill="#F3AB1F"/>
</svg>
