<svg width="130" height="40" viewBox="0 0 130 40" fill="none" xmlns="http://www.w3.org/2000/svg">
<path d="M117.216 0V15.1083H118.05C118.353 15.1083 118.588 15.0728 118.758 15.0018C118.939 14.9189 119.12 14.7591 119.302 14.5224L123.926 8.93004C124.119 8.68149 124.331 8.49212 124.561 8.36193C124.802 8.23174 125.111 8.16664 125.485 8.16664H129.584L123.799 14.9307C123.388 15.4634 122.941 15.8717 122.457 16.1557C122.711 16.3333 122.935 16.5404 123.128 16.7771C123.333 17.0138 123.527 17.2683 123.708 17.5405L129.91 26.3818H125.866C125.516 26.3818 125.213 26.3285 124.959 26.222C124.706 26.1037 124.494 25.8965 124.325 25.6006L119.574 18.6945C119.404 18.4223 119.229 18.2447 119.048 18.1619C118.866 18.079 118.594 18.0376 118.232 18.0376H117.216V26.3818H112.737V0H117.216Z" fill="#F9F9F9"/>
<path d="M108.569 12.0192C108.436 12.1849 108.303 12.3151 108.17 12.4097C108.049 12.5044 107.868 12.5518 107.626 12.5518C107.397 12.5518 107.173 12.4867 106.955 12.3565C106.738 12.2145 106.478 12.0606 106.176 11.8949C105.873 11.7174 105.511 11.5635 105.088 11.4333C104.677 11.2913 104.163 11.2203 103.546 11.2203C102.76 11.2203 102.071 11.3623 101.479 11.6463C100.887 11.9186 100.391 12.3151 99.9919 12.8358C99.6051 13.3566 99.3149 13.9898 99.1215 14.7355C98.9281 15.4693 98.8314 16.3037 98.8314 17.2387C98.8314 18.2092 98.9341 19.0732 99.1396 19.8307C99.3572 20.5882 99.6655 21.2273 100.064 21.7481C100.463 22.2571 100.947 22.6476 101.515 22.9199C102.083 23.1802 102.724 23.3104 103.437 23.3104C104.151 23.3104 104.725 23.2276 105.16 23.0619C105.607 22.8843 105.982 22.695 106.284 22.4938C106.587 22.2807 106.847 22.0914 107.064 21.9257C107.294 21.7481 107.548 21.6594 107.826 21.6594C108.188 21.6594 108.46 21.7955 108.642 22.0677L109.929 23.6655C109.434 24.2336 108.896 24.713 108.315 25.1035C107.735 25.4823 107.131 25.79 106.502 26.0267C105.885 26.2516 105.245 26.4114 104.58 26.5061C103.927 26.6008 103.274 26.6481 102.621 26.6481C101.473 26.6481 100.391 26.441 99.3754 26.0267C98.3599 25.6006 97.4713 24.9852 96.7097 24.1804C95.9481 23.3755 95.3436 22.3932 94.8963 21.2333C94.4611 20.0615 94.2435 18.73 94.2435 17.2387C94.2435 15.9013 94.4369 14.6644 94.8238 13.5282C95.2227 12.3802 95.803 11.3919 96.5646 10.5634C97.3262 9.72304 98.2692 9.06616 99.3935 8.59273C100.518 8.1193 101.811 7.88259 103.274 7.88259C104.664 7.88259 105.879 8.10155 106.919 8.53947C107.971 8.97739 108.914 9.60468 109.748 10.4213L108.569 12.0192Z" fill="#F9F9F9"/>
<path d="M86.6521 18.6057C85.3586 18.6649 84.2706 18.7774 83.3881 18.9431C82.5055 19.0969 81.7983 19.2981 81.2664 19.5467C80.7345 19.7952 80.3536 20.0852 80.1239 20.4166C79.8942 20.748 79.7794 21.109 79.7794 21.4996C79.7794 22.2689 80.0091 22.8193 80.4685 23.1507C80.94 23.4821 81.5505 23.6478 82.3 23.6478C83.2188 23.6478 84.0106 23.488 84.6756 23.1684C85.3526 22.837 86.0114 22.3399 86.6521 21.6771V18.6057ZM76.3884 10.7054C78.5282 8.78802 81.1032 7.82933 84.1134 7.82933C85.2014 7.82933 86.1746 8.00686 87.033 8.36193C87.8913 8.70517 88.6167 9.19043 89.209 9.81773C89.8014 10.4332 90.2487 11.1729 90.5509 12.0369C90.8653 12.9009 91.0224 13.8478 91.0224 14.8775V26.3818H88.9914C88.5683 26.3818 88.2419 26.3226 88.0122 26.2043C87.7825 26.0741 87.6012 25.8196 87.4682 25.4409L87.0692 24.1271C86.5978 24.5413 86.1384 24.9083 85.6911 25.2278C85.2438 25.5355 84.7783 25.7959 84.2947 26.009C83.8112 26.222 83.2913 26.3818 82.7352 26.4883C82.1912 26.6067 81.5868 26.6659 80.9218 26.6659C80.136 26.6659 79.4107 26.5653 78.7458 26.364C78.0809 26.151 77.5066 25.8374 77.0231 25.4231C76.5395 25.0089 76.1647 24.494 75.8988 23.8785C75.6328 23.2631 75.4998 22.547 75.4998 21.7304C75.4998 21.2688 75.5784 20.8131 75.7355 20.3633C75.8927 19.9017 76.1466 19.4638 76.4972 19.0496C76.8598 18.6353 77.3253 18.2447 77.8935 17.8778C78.4617 17.5109 79.1568 17.1914 79.9789 16.9192C80.813 16.6469 81.7802 16.428 82.8803 16.2623C83.9804 16.0847 85.2377 15.9782 86.6521 15.9427V14.8775C86.6521 13.6584 86.3862 12.7589 85.8543 12.179C85.3223 11.5872 84.5547 11.2913 83.5513 11.2913C82.8259 11.2913 82.2214 11.3741 81.7379 11.5398C81.2664 11.7055 80.8493 11.8949 80.4866 12.1079C80.124 12.3091 79.7915 12.4926 79.4893 12.6583C79.1991 12.824 78.8727 12.9068 78.51 12.9068C78.1957 12.9068 77.9297 12.8299 77.7121 12.6761C77.4945 12.5104 77.3192 12.321 77.1863 12.1079L76.3884 10.7054Z" fill="#F9F9F9"/>
<path d="M67.7671 11.3268C68.3474 10.2379 69.0365 9.38572 69.8344 8.77027C70.6323 8.14297 71.5753 7.82933 72.6633 7.82933C73.5216 7.82933 74.2107 8.01278 74.7305 8.37969L74.4404 11.6641C74.38 11.8771 74.2893 12.031 74.1684 12.1257C74.0596 12.2085 73.9085 12.25 73.715 12.25C73.5337 12.25 73.2617 12.2204 72.899 12.1612C72.5484 12.102 72.2039 12.0724 71.8654 12.0724C71.3697 12.0724 70.9285 12.1434 70.5416 12.2855C70.1548 12.4275 69.8042 12.6346 69.4899 12.9068C69.1876 13.1672 68.9156 13.4868 68.6738 13.8655C68.4441 14.2443 68.2265 14.6763 68.021 15.1615V26.3818H63.5419V8.16665H66.1713C66.6307 8.16665 66.9511 8.2495 67.1324 8.41519C67.3138 8.56906 67.4347 8.85312 67.4951 9.26737L67.7671 11.3268Z" fill="#F9F9F9"/>
<path d="M56.2496 26.6659C54.6296 26.6659 53.3844 26.222 52.514 25.3343C51.6556 24.4348 51.2265 23.198 51.2265 21.6238V11.4511H49.3224C49.0806 11.4511 48.8751 11.3741 48.7059 11.2203C48.5366 11.0664 48.452 10.8356 48.452 10.5279V8.78802L51.4441 8.30867L52.387 3.33767C52.4475 3.10096 52.5623 2.9175 52.7316 2.78731C52.9008 2.65712 53.1184 2.59202 53.3844 2.59202H55.7055V8.32642H60.6742V11.4511H55.7055V21.322C55.7055 21.8901 55.8446 22.334 56.1226 22.6535C56.4128 22.9731 56.8057 23.1329 57.3013 23.1329C57.5794 23.1329 57.8091 23.1033 57.9904 23.0441C58.1838 22.9731 58.347 22.9021 58.48 22.8311C58.6251 22.7601 58.752 22.695 58.8608 22.6358C58.9696 22.5648 59.0784 22.5293 59.1872 22.5293C59.3202 22.5293 59.429 22.5648 59.5137 22.6358C59.5983 22.695 59.6889 22.7897 59.7857 22.9199L61.1276 25.0503C60.4747 25.5829 59.7252 25.9853 58.879 26.2575C58.0327 26.5297 57.1562 26.6659 56.2496 26.6659Z" fill="#F9F9F9"/>
<path d="M34.0131 10.4036C34.3879 10.0367 34.7808 9.69937 35.1919 9.39164C35.615 9.07207 36.0562 8.80577 36.5156 8.59273C36.9871 8.36785 37.4888 8.19623 38.0207 8.07788C38.5527 7.94768 39.133 7.88259 39.7616 7.88259C40.7771 7.88259 41.6777 8.0542 42.4635 8.39744C43.2493 8.72884 43.9022 9.20227 44.422 9.81772C44.9539 10.4213 45.3529 11.1492 45.6188 12.0014C45.8969 12.8417 46.0359 13.7709 46.0359 14.7887V26.3818H41.5569V14.7887C41.5569 13.6762 41.2969 12.8181 40.7771 12.2145C40.2573 11.599 39.4654 11.2913 38.4016 11.2913C37.6278 11.2913 36.9025 11.4629 36.2255 11.8061C35.5485 12.1494 34.9078 12.6169 34.3033 13.2087V26.3818H29.8242V8.16664H32.5624C33.1427 8.16664 33.5235 8.43295 33.7049 8.96555L34.0131 10.4036Z" fill="#F9F9F9"/>
<path d="M26.5662 13.5459C26.5662 15.4278 26.2458 17.1735 25.6051 18.7832C24.9764 20.381 24.0818 21.7658 22.9212 22.9375C21.7607 24.1093 20.3644 25.0265 18.7323 25.6893C17.1003 26.3403 15.2869 26.6658 13.2921 26.6658C11.3095 26.6658 9.50216 26.3403 7.87011 25.6893C6.23806 25.0265 4.83571 24.1093 3.66305 22.9375C2.50248 21.7658 1.60183 20.381 0.961097 18.7832C0.320366 17.1735 0 15.4278 0 13.5459C0 11.664 0.320366 9.92418 0.961097 8.32636C1.60183 6.7167 2.50248 5.32601 3.66305 4.15427C4.83571 2.98254 6.23806 2.07119 7.87011 1.42022C9.50216 0.757425 11.3095 0.426025 13.2921 0.426025C14.622 0.426025 15.8732 0.579889 17.0459 0.887616C18.2185 1.18351 19.2945 1.6096 20.2737 2.16587C21.2529 2.71032 22.1294 3.37903 22.9031 4.17203C23.6889 4.95318 24.3538 5.82902 24.8978 6.79955C25.4419 7.77008 25.8529 8.82346 26.1309 9.95969C26.4211 11.0959 26.5662 12.2913 26.5662 13.5459ZM21.5793 13.5459C21.5793 12.1375 21.3859 10.877 20.9991 9.7644C20.6122 8.64001 20.0621 7.68723 19.3489 6.90608C18.6356 6.12492 17.7652 5.52721 16.7376 5.11296C15.7221 4.69871 14.5736 4.49159 13.2921 4.49159C12.0107 4.49159 10.8562 4.69871 9.82857 5.11296C8.81308 5.52721 7.94265 6.12492 7.21729 6.90608C6.50403 7.68723 5.95396 8.64001 5.56711 9.7644C5.18025 10.877 4.98682 12.1375 4.98682 13.5459C4.98682 14.9544 5.18025 16.2208 5.56711 17.3452C5.95396 18.4577 6.50403 19.4046 7.21729 20.1857C7.94265 20.9551 8.81308 21.5468 9.82857 21.9611C10.8562 22.3753 12.0107 22.5825 13.2921 22.5825C14.5736 22.5825 15.7221 22.3753 16.7376 21.9611C17.7652 21.5468 18.6356 20.9551 19.3489 20.1857C20.0621 19.4046 20.6122 18.4577 20.9991 17.3452C21.3859 16.2208 21.5793 14.9544 21.5793 13.5459Z" fill="#3C64EF"/>
<path d="M127.572 35.9286C127.746 35.9286 127.899 35.9049 128.032 35.8576C128.164 35.8102 128.275 35.744 128.365 35.6587C128.456 35.5735 128.523 35.4725 128.568 35.3558C128.614 35.2358 128.636 35.1048 128.636 34.9628C128.636 34.6693 128.544 34.4357 128.36 34.2621C128.18 34.0885 127.917 34.0017 127.572 34.0017C127.224 34.0017 126.958 34.0885 126.774 34.2621C126.594 34.4357 126.504 34.6693 126.504 34.9628C126.504 35.1048 126.526 35.2358 126.571 35.3558C126.62 35.4725 126.689 35.5735 126.779 35.6587C126.869 35.744 126.981 35.8102 127.113 35.8576C127.245 35.9049 127.398 35.9286 127.572 35.9286ZM129.125 38.5325C129.125 38.4157 129.091 38.321 129.023 38.2484C128.955 38.1758 128.863 38.119 128.747 38.078C128.635 38.0369 128.502 38.0085 128.351 37.9927C128.199 37.9738 128.038 37.9596 127.867 37.9501C127.7 37.9407 127.529 37.9312 127.355 37.9217C127.181 37.9123 127.013 37.8965 126.852 37.8744C126.671 37.9564 126.523 38.0606 126.407 38.1869C126.294 38.3099 126.238 38.4551 126.238 38.6224C126.238 38.7297 126.265 38.8291 126.32 38.9207C126.378 39.0154 126.465 39.0958 126.581 39.1621C126.697 39.2316 126.842 39.2852 127.016 39.3231C127.193 39.3641 127.401 39.3846 127.64 39.3846C127.872 39.3846 128.08 39.3641 128.264 39.3231C128.448 39.2821 128.602 39.2237 128.728 39.1479C128.857 39.0722 128.955 38.9822 129.023 38.8781C129.091 38.7739 129.125 38.6587 129.125 38.5325ZM130 33.6656V33.9781C130 34.0822 129.932 34.1485 129.797 34.1769L129.241 34.2479C129.35 34.4562 129.405 34.6866 129.405 34.9391C129.405 35.1727 129.358 35.3857 129.265 35.5783C129.174 35.7676 129.049 35.9302 128.888 36.0659C128.726 36.2016 128.533 36.3058 128.307 36.3784C128.082 36.4509 127.837 36.4872 127.572 36.4872C127.343 36.4872 127.127 36.4604 126.924 36.4068C126.821 36.4699 126.742 36.5377 126.687 36.6103C126.633 36.6798 126.605 36.7508 126.605 36.8234C126.605 36.937 126.652 37.0238 126.745 37.0838C126.842 37.1406 126.968 37.1816 127.123 37.2069C127.277 37.2321 127.453 37.2479 127.65 37.2542C127.85 37.2605 128.053 37.2716 128.259 37.2873C128.468 37.3 128.672 37.3236 128.868 37.3584C129.068 37.3931 129.245 37.4499 129.4 37.5288C129.555 37.6077 129.679 37.7166 129.773 37.8555C129.869 37.9943 129.918 38.1742 129.918 38.3952C129.918 38.6003 129.864 38.7992 129.758 38.9917C129.655 39.1842 129.505 39.3546 129.308 39.503C129.112 39.6545 128.87 39.7744 128.583 39.8628C128.299 39.9543 127.978 40.0001 127.621 40.0001C127.263 40.0001 126.95 39.9654 126.682 39.8959C126.415 39.8265 126.192 39.7334 126.015 39.6166C125.838 39.4998 125.704 39.3641 125.614 39.2095C125.527 39.058 125.483 38.8986 125.483 38.7313C125.483 38.4946 125.559 38.2942 125.711 38.13C125.862 37.9659 126.07 37.8349 126.334 37.7371C126.189 37.674 126.073 37.5903 125.986 37.4862C125.902 37.3789 125.86 37.2353 125.86 37.0554C125.86 36.9859 125.873 36.9149 125.899 36.8423C125.925 36.7666 125.964 36.6924 126.015 36.6198C126.07 36.5441 126.136 36.473 126.213 36.4068C126.291 36.3405 126.381 36.2821 126.484 36.2316C126.242 36.099 126.054 35.9239 125.918 35.7061C125.783 35.4852 125.715 35.2295 125.715 34.9391C125.715 34.7056 125.76 34.4941 125.851 34.3047C125.944 34.1122 126.073 33.9497 126.238 33.8171C126.402 33.6814 126.597 33.5772 126.823 33.5046C127.052 33.4321 127.301 33.3958 127.572 33.3958C127.785 33.3958 127.983 33.4194 128.167 33.4668C128.351 33.511 128.518 33.5772 128.67 33.6656H130Z" fill="#F9F9F9"/>
<path d="M116.449 34.1722C116.555 34.0554 116.668 33.9497 116.788 33.855C116.907 33.7603 117.033 33.6798 117.165 33.6135C117.3 33.5441 117.442 33.492 117.59 33.4573C117.742 33.4194 117.905 33.4005 118.079 33.4005C118.346 33.4005 118.582 33.4447 118.785 33.533C118.991 33.6183 119.162 33.7414 119.297 33.9023C119.436 34.0601 119.541 34.2511 119.612 34.4752C119.682 34.6993 119.718 34.947 119.718 35.2185V38.2721H118.852V35.2185C118.852 34.8555 118.767 34.5746 118.596 34.3758C118.428 34.1738 118.172 34.0728 117.827 34.0728C117.573 34.0728 117.334 34.1327 117.112 34.2527C116.892 34.3726 116.689 34.5351 116.502 34.7403V38.2721H115.637V33.4762H116.154C116.277 33.4762 116.352 33.5346 116.381 33.6514L116.449 34.1722Z" fill="#F9F9F9"/>
<path d="M109.387 33.4762V38.2721H108.526V33.4762H109.387ZM109.57 31.9707C109.57 32.0528 109.553 32.1301 109.517 32.2027C109.485 32.2722 109.44 32.3353 109.382 32.3921C109.327 32.4457 109.261 32.4883 109.184 32.5199C109.109 32.5515 109.03 32.5673 108.947 32.5673C108.863 32.5673 108.784 32.5515 108.71 32.5199C108.639 32.4883 108.576 32.4457 108.521 32.3921C108.466 32.3353 108.423 32.2722 108.39 32.2027C108.358 32.1301 108.342 32.0528 108.342 31.9707C108.342 31.8887 108.358 31.8113 108.39 31.7388C108.423 31.663 108.466 31.5983 108.521 31.5446C108.576 31.4878 108.639 31.4437 108.71 31.4121C108.784 31.3805 108.863 31.3647 108.947 31.3647C109.03 31.3647 109.109 31.3805 109.184 31.4121C109.261 31.4437 109.327 31.4878 109.382 31.5446C109.44 31.5983 109.485 31.663 109.517 31.7388C109.553 31.8113 109.57 31.8887 109.57 31.9707Z" fill="#F9F9F9"/>
<path d="M99.0613 34.1722C99.1676 34.0554 99.2805 33.9497 99.3997 33.855C99.519 33.7603 99.6448 33.6798 99.7769 33.6135C99.9123 33.5441 100.054 33.492 100.202 33.4573C100.354 33.4194 100.517 33.4005 100.691 33.4005C100.958 33.4005 101.194 33.4447 101.397 33.533C101.603 33.6183 101.774 33.7414 101.909 33.9023C102.048 34.0601 102.153 34.2511 102.224 34.4752C102.295 34.6993 102.33 34.947 102.33 35.2185V38.2721H101.465V35.2185C101.465 34.8555 101.379 34.5746 101.208 34.3758C101.041 34.1738 100.784 34.0728 100.439 34.0728C100.185 34.0728 99.9462 34.1327 99.7237 34.2527C99.5045 34.3726 99.3014 34.5351 99.1144 34.7403V38.2721H98.2489V33.4762H98.7663C98.8888 33.4762 98.9645 33.5346 98.9936 33.6514L99.0613 34.1722Z" fill="#F9F9F9"/>
<path d="M90.7075 34.4373C90.8622 34.1091 91.0524 33.8534 91.2781 33.6703C91.5038 33.4841 91.7794 33.391 92.105 33.391C92.2082 33.391 92.3065 33.4021 92.4 33.4242C92.4967 33.4463 92.5821 33.481 92.6563 33.5283L92.5934 34.158C92.5741 34.2369 92.5257 34.2763 92.4483 34.2763C92.4032 34.2763 92.3371 34.2669 92.2501 34.2479C92.163 34.229 92.0647 34.2195 91.9551 34.2195C91.8004 34.2195 91.6617 34.2416 91.5392 34.2858C91.42 34.33 91.312 34.3963 91.2152 34.4846C91.1218 34.5699 91.0363 34.6772 90.9589 34.8066C90.8848 34.9328 90.8171 35.078 90.7558 35.2421V38.2721H89.8903V33.4762H90.3835C90.477 33.4762 90.5415 33.4936 90.5769 33.5283C90.6124 33.563 90.6366 33.623 90.6495 33.7082L90.7075 34.4373Z" fill="#F9F9F9"/>
<path d="M82.902 36.1132C82.5055 36.1259 82.167 36.1574 81.8865 36.2079C81.6093 36.2553 81.382 36.3184 81.2047 36.3973C81.0306 36.4762 80.9032 36.5693 80.8226 36.6766C80.7453 36.7839 80.7066 36.9039 80.7066 37.0364C80.7066 37.1627 80.7275 37.2716 80.7695 37.3631C80.8114 37.4546 80.8678 37.5304 80.9387 37.5903C81.0128 37.6471 81.0983 37.6898 81.195 37.7182C81.2949 37.7434 81.4013 37.756 81.5141 37.756C81.6657 37.756 81.8043 37.7418 81.93 37.7134C82.0557 37.6819 82.1734 37.6377 82.283 37.5809C82.3959 37.5241 82.5022 37.4562 82.6022 37.3773C82.7053 37.2984 82.8053 37.2084 82.902 37.1074V36.1132ZM80.1215 34.1532C80.3923 33.8976 80.684 33.7066 80.9967 33.5804C81.3094 33.4541 81.656 33.391 82.0364 33.391C82.3104 33.391 82.5538 33.4352 82.7666 33.5236C82.9794 33.612 83.1583 33.7351 83.3034 33.8929C83.4484 34.0507 83.558 34.2416 83.6322 34.4657C83.7063 34.6898 83.7434 34.936 83.7434 35.2043V38.2721H83.3614C83.2776 38.2721 83.2131 38.2594 83.168 38.2342C83.1228 38.2058 83.0874 38.1521 83.0616 38.0732L82.9649 37.6187C82.8359 37.7355 82.7102 37.8397 82.5877 37.9312C82.4652 38.0196 82.3362 38.0953 82.2008 38.1584C82.0654 38.2184 81.9203 38.2642 81.7656 38.2957C81.6141 38.3305 81.4448 38.3478 81.2579 38.3478C81.0677 38.3478 80.8887 38.3226 80.7211 38.2721C80.5535 38.2184 80.4068 38.1395 80.281 38.0354C80.1585 37.9312 80.0602 37.8002 79.9861 37.6424C79.9151 37.4814 79.8797 37.2921 79.8797 37.0743C79.8797 36.8849 79.9329 36.7034 80.0393 36.5299C80.1456 36.3531 80.3181 36.1969 80.5567 36.0612C80.7952 35.9254 81.1063 35.815 81.49 35.7298C81.8736 35.6414 82.3443 35.5909 82.902 35.5783V35.2043C82.902 34.8318 82.8198 34.5509 82.6554 34.3616C82.491 34.169 82.2508 34.0728 81.9349 34.0728C81.7221 34.0728 81.5432 34.0996 81.3981 34.1532C81.2562 34.2037 81.1321 34.2621 81.0257 34.3284C80.9226 34.3915 80.8323 34.4499 80.7549 34.5036C80.6808 34.5541 80.6066 34.5793 80.5325 34.5793C80.4745 34.5793 80.4245 34.5651 80.3826 34.5367C80.3407 34.5052 80.3052 34.4673 80.2762 34.4231L80.1215 34.1532Z" fill="#F9F9F9"/>
<path d="M73.5805 35.351C73.5805 35.1553 73.5515 34.977 73.4934 34.816C73.4386 34.6519 73.3564 34.5115 73.2468 34.3947C73.1404 34.2748 73.0099 34.1832 72.8551 34.1201C72.7004 34.0538 72.5247 34.0207 72.328 34.0207C71.9154 34.0207 71.5882 34.139 71.3464 34.3758C71.1078 34.6093 70.9595 34.9344 70.9015 35.351H73.5805ZM74.2768 37.5998C74.1704 37.726 74.0431 37.8365 73.8948 37.9312C73.7465 38.0227 73.5869 38.0985 73.4161 38.1584C73.2484 38.2184 73.0743 38.2626 72.8938 38.291C72.7133 38.3226 72.5344 38.3383 72.357 38.3383C72.0185 38.3383 71.7058 38.2831 71.4189 38.1726C71.1352 38.059 70.8886 37.8949 70.6791 37.6803C70.4727 37.4625 70.3115 37.1942 70.1955 36.8755C70.0794 36.5567 70.0214 36.1906 70.0214 35.7771C70.0214 35.4425 70.073 35.1301 70.1761 34.8397C70.2825 34.5493 70.4341 34.2984 70.6307 34.087C70.8274 33.8723 71.0675 33.7051 71.3512 33.5851C71.6349 33.462 71.9541 33.4005 72.3087 33.4005C72.6021 33.4005 72.8729 33.4494 73.1211 33.5473C73.3725 33.6419 73.5885 33.7808 73.7691 33.9639C73.9528 34.1438 74.0963 34.3679 74.1995 34.6361C74.3026 34.9013 74.3542 35.2043 74.3542 35.5451C74.3542 35.6777 74.3397 35.7661 74.3107 35.8102C74.2817 35.8544 74.2269 35.8765 74.1463 35.8765H70.8725C70.8822 36.1795 70.9241 36.4431 70.9982 36.6671C71.0756 36.8912 71.182 37.079 71.3174 37.2305C71.4528 37.3789 71.614 37.4909 71.8009 37.5667C71.9879 37.6393 72.1975 37.6755 72.4296 37.6755C72.6456 37.6755 72.8309 37.6519 72.9857 37.6045C73.1437 37.554 73.2791 37.5004 73.3919 37.4436C73.5047 37.3868 73.5982 37.3347 73.6724 37.2873C73.7497 37.2368 73.8158 37.2116 73.8706 37.2116C73.9415 37.2116 73.9964 37.2384 74.035 37.2921L74.2768 37.5998Z" fill="#F9F9F9"/>
<path d="M64.9822 37.5004V38.2721H61.0508V31.4878H61.9841V37.5004H64.9822Z" fill="#F9F9F9"/>
</svg>
