<svg width="24" height="24" viewBox="0 0 24 24" fill="none" xmlns="http://www.w3.org/2000/svg">
<path opacity="0.4" d="M12 22C17.5228 22 22 17.5228 22 12C22 6.47715 17.5228 2 12 2C6.47715 2 2 6.47715 2 12C2 17.5228 6.47715 22 12 22Z" fill="#161616"/>
<path d="M9 7.296C9.186 7.122 9.39 6.957 9.612 6.801C9.84 6.645 10.086 6.507 10.35 6.387C10.62 6.267 10.908 6.174 11.214 6.108C11.526 6.036 11.862 6 12.222 6C12.696 6 13.134 6.069 13.536 6.207C13.944 6.345 14.295 6.54 14.589 6.792C14.883 7.044 15.114 7.35 15.282 7.71C15.45 8.07 15.534 8.475 15.534 8.925C15.534 9.381 15.465 9.774 15.327 10.104C15.195 10.434 15.024 10.725 14.814 10.977C14.61 11.223 14.385 11.439 14.139 11.625C13.899 11.805 13.671 11.976 13.455 12.138C13.239 12.3 13.053 12.462 12.897 12.624C12.747 12.786 12.66 12.966 12.636 13.164L12.474 14.541H11.376L11.268 13.047C11.244 12.777 11.295 12.543 11.421 12.345C11.547 12.141 11.712 11.952 11.916 11.778C12.12 11.598 12.345 11.424 12.591 11.256C12.837 11.082 13.065 10.89 13.275 10.68C13.491 10.47 13.671 10.233 13.815 9.969C13.959 9.699 14.031 9.378 14.031 9.006C14.031 8.748 13.98 8.514 13.878 8.304C13.776 8.094 13.638 7.917 13.464 7.773C13.29 7.623 13.083 7.509 12.843 7.431C12.609 7.353 12.357 7.314 12.087 7.314C11.721 7.314 11.406 7.359 11.142 7.449C10.884 7.539 10.665 7.638 10.485 7.746C10.305 7.854 10.158 7.953 10.044 8.043C9.936 8.133 9.846 8.178 9.774 8.178C9.624 8.178 9.507 8.109 9.423 7.971L9 7.296ZM10.755 17.051C10.755 16.895 10.782 16.748 10.836 16.61C10.896 16.472 10.974 16.352 11.07 16.25C11.172 16.148 11.292 16.067 11.43 16.007C11.568 15.947 11.715 15.917 11.871 15.917C12.027 15.917 12.174 15.947 12.312 16.007C12.45 16.067 12.57 16.148 12.672 16.25C12.774 16.352 12.855 16.472 12.915 16.61C12.975 16.748 13.005 16.895 13.005 17.051C13.005 17.213 12.975 17.363 12.915 17.501C12.855 17.633 12.774 17.75 12.672 17.852C12.57 17.954 12.45 18.032 12.312 18.086C12.174 18.146 12.027 18.176 11.871 18.176C11.715 18.176 11.568 18.146 11.43 18.086C11.292 18.032 11.172 17.954 11.07 17.852C10.974 17.75 10.896 17.633 10.836 17.501C10.782 17.363 10.755 17.213 10.755 17.051Z" fill="#161616"/>
</svg>
