<svg width="18" height="18" viewBox="0 0 18 18" fill="none" xmlns="http://www.w3.org/2000/svg">
<path d="M9.18086 0.3619C10.9251 0.3619 12.6302 0.879128 14.0805 1.84818C15.5307 2.81723 16.6611 4.19457 17.3286 5.80604C17.9961 7.41751 18.1707 9.19073 17.8305 10.9015C17.4902 12.6122 16.6502 14.1836 15.4169 15.417C14.1835 16.6503 12.6121 17.4902 10.9014 17.8305C9.19064 18.1708 7.41743 17.9962 5.80596 17.3287C4.19449 16.6612 2.81714 15.5308 1.84809 14.0805C0.879044 12.6303 0.361816 10.9252 0.361816 9.18095H3.22299C3.22299 10.3593 3.57242 11.5112 4.22708 12.491C4.88173 13.4707 5.81223 14.2344 6.90088 14.6853C7.98954 15.1362 9.18747 15.2542 10.3432 15.0243C11.4989 14.7944 12.5605 14.227 13.3937 13.3938C14.2269 12.5606 14.7944 11.499 15.0242 10.3433C15.2541 9.18755 15.1361 7.98963 14.6852 6.90097C14.2343 5.81231 13.4706 4.88182 12.4909 4.22716C11.5111 3.5725 10.3592 3.22308 9.18086 3.22308V0.3619Z" fill="#42CBF7"/>
<path d="M9.48989 7.82471C9.76076 8.83563 8.83571 9.76069 7.82479 9.48981L2.70701 8.11851C1.6961 7.84763 1.3575 6.58399 2.09754 5.84394L5.84402 2.09747C6.58406 1.35743 7.84771 1.69602 8.11858 2.70694L9.48989 7.82471Z" fill="#3C64EF"/>
<path d="M0.274791 5.58203C-0.0915971 5.21564 -0.0915971 4.62161 0.274791 4.25522L4.25522 0.274791C4.62161 -0.0915971 5.21564 -0.0915971 5.58203 0.274791C5.94842 0.64118 5.94842 1.23521 5.58203 1.6016L1.6016 5.58203C1.23521 5.94842 0.64118 5.94842 0.274791 5.58203Z" fill="#3C64EF"/>
</svg>
