<svg width="24" height="24" viewBox="0 0 24 24" fill="none" xmlns="http://www.w3.org/2000/svg">
<path opacity="0.4" d="M17.9501 7.71L17.8101 7.63L16.4201 6.83L13.5501 5.17C12.6701 4.66 11.3301 4.66 10.4501 5.17L7.5801 6.83L6.1901 7.64L6.0101 7.74C4.2201 8.94 4.1001 9.16 4.1001 11.09V15.7C4.1001 17.63 4.2201 17.85 6.0501 19.08L10.4501 21.62C10.8901 21.88 11.4401 22 12.0001 22C12.5501 22 13.1101 21.88 13.5501 21.62L17.9901 19.05C19.7801 17.85 19.9001 17.63 19.9001 15.7V11.09C19.9001 9.16 19.7801 8.94 17.9501 7.71Z" fill="#161616"/>
<path d="M6.18994 7.64L7.57994 6.83L10.3199 5.25L10.4499 5.17C11.3299 4.66 12.6699 4.66 13.5499 5.17L13.6799 5.25L16.4199 6.83L17.8099 7.63V5.49C17.8099 3.24 16.5699 2 14.3199 2H9.66994C7.41994 2 6.18994 3.24 6.18994 5.49V7.64Z" fill="#161616"/>
<path d="M14.8402 13.34L14.2202 14.1C14.1202 14.21 14.0502 14.43 14.0602 14.58L14.1202 15.56C14.1602 16.16 13.7302 16.47 13.1702 16.25L12.2602 15.89C12.1202 15.84 11.8802 15.84 11.7402 15.89L10.8302 16.25C10.2702 16.47 9.84024 16.16 9.88024 15.56L9.94023 14.58C9.95023 14.43 9.88023 14.21 9.78023 14.1L9.16023 13.34C8.77024 12.88 8.94024 12.37 9.52024 12.22L10.4702 11.98C10.6202 11.94 10.8002 11.8 10.8802 11.67L11.4102 10.85C11.7402 10.34 12.2602 10.34 12.5902 10.85L13.1202 11.67C13.2002 11.8 13.3802 11.94 13.5302 11.98L14.4802 12.22C15.0602 12.37 15.2302 12.88 14.8402 13.34Z" fill="#161616"/>
</svg>
